<?xml version="1.0" standalone="no"?>
<!DOCTYPE svg PUBLIC "-//W3C//DTD SVG 20010904//EN"
 "http://www.w3.org/TR/2001/REC-SVG-20010904/DTD/svg10.dtd">
<svg version="1.0" xmlns="http://www.w3.org/2000/svg"
 width="190.000000pt" height="190.000000pt" viewBox="0 0 190.000000 190.000000"
 preserveAspectRatio="xMidYMid meet">
<metadata>
Created by potrace 1.11, written by Peter Selinger 2001-2013
</metadata>
<g transform="translate(0.000000,190.000000) scale(0.100000,-0.100000)"
fill="#000000" stroke="none">
<path d="M199 1898 c-1 -2 -2 -51 -3 -110 l-1 -108 87 0 88 0 0 -777 c0 -762
0 -777 20 -819 38 -78 27 -77 577 -76 446 1 486 2 521 19 65 32 75 64 77 239
1 133 -1 154 -15 155 -61 4 -218 1 -226 -3 -5 -4 -8 -36 -7 -73 4 -107 21
-102 -341 -101 -279 1 -309 3 -320 18 -10 13 -13 89 -13 303 l0 285 36 1 c20
0 168 0 328 0 200 0 295 4 299 11 4 6 7 59 7 117 l0 106 -259 2 c-142 1 -293
2 -335 2 l-76 1 0 295 0 295 283 0 c244 0 285 -2 298 -16 9 -8 16 -23 17 -32
0 -9 1 -42 2 -72 l2 -55 125 0 124 0 -2 144 c-1 158 -11 201 -49 231 -25 20
-39 20 -634 20 -335 0 -610 -1 -610 -2z"/>
</g>
</svg>
